<svg width="16" height="16" viewBox="0 0 16 16" fill="none" xmlns="http://www.w3.org/2000/svg">
<path fill-rule="evenodd" clip-rule="evenodd" d="M13.3333 2H2.66666C1.53332 2 0.666656 2.86667 0.666656 4V12C0.666656 13.1333 1.53332 14 2.66666 14H13.3333C14.4667 14 15.3333 13.1333 15.3333 12V4C15.3333 2.86667 14.4667 2 13.3333 2ZM2.66665 3.33333H13.3333C13.6 3.33333 13.8 3.46667 13.9333 3.73333L7.99999 7.86667L2.06665 3.73333C2.19999 3.46667 2.39999 3.33333 2.66665 3.33333ZM1.99999 12C1.99999 12.4 2.26666 12.6667 2.66666 12.6667H13.3333C13.7333 12.6667 14 12.4 14 12V5.26666L8.39999 9.19999C8.26666 9.26666 8.13332 9.33332 7.99999 9.33332C7.86666 9.33332 7.73332 9.26666 7.59999 9.19999L1.99999 5.26666V12Z" fill="black"/>
<mask id="mask0" mask-type="alpha" maskUnits="userSpaceOnUse" x="0" y="2" width="16" height="12">
<path fill-rule="evenodd" clip-rule="evenodd" d="M13.3333 2H2.66666C1.53332 2 0.666656 2.86667 0.666656 4V12C0.666656 13.1333 1.53332 14 2.66666 14H13.3333C14.4667 14 15.3333 13.1333 15.3333 12V4C15.3333 2.86667 14.4667 2 13.3333 2ZM2.66665 3.33333H13.3333C13.6 3.33333 13.8 3.46667 13.9333 3.73333L7.99999 7.86667L2.06665 3.73333C2.19999 3.46667 2.39999 3.33333 2.66665 3.33333ZM1.99999 12C1.99999 12.4 2.26666 12.6667 2.66666 12.6667H13.3333C13.7333 12.6667 14 12.4 14 12V5.26666L8.39999 9.19999C8.26666 9.26666 8.13332 9.33332 7.99999 9.33332C7.86666 9.33332 7.73332 9.26666 7.59999 9.19999L1.99999 5.26666V12Z" fill="white"/>
</mask>
<g mask="url(#mask0)">
<path fill-rule="evenodd" clip-rule="evenodd" d="M0 0H16V16H0V0Z" fill="#666666"/>
</g>
</svg>
