<svg width="16" height="17" viewBox="0 0 16 17" fill="none" xmlns="http://www.w3.org/2000/svg">
<path fill-rule="evenodd" clip-rule="evenodd" d="M3.3315 12.3798C3.0475 12.0208 2.7025 11.2868 2.0885 10.3958C1.7405 9.89183 0.877496 8.94283 0.620496 8.46083C0.397496 8.03483 0.421496 7.84383 0.474496 7.49083C0.568496 6.86283 1.2125 6.37383 1.8995 6.43983C2.4185 6.48883 2.8585 6.83183 3.2545 7.15583C3.4935 7.35083 3.7875 7.72983 3.9645 7.94383C4.1275 8.13983 4.1675 8.22083 4.3415 8.45283C4.5715 8.75983 4.6435 8.91183 4.5555 8.57383C4.4845 8.07783 4.3685 7.23083 4.2005 6.48183C4.0725 5.91383 4.0415 5.82483 3.9195 5.38883C3.7905 4.92483 3.7245 4.59983 3.6035 4.10783C3.5195 3.75983 3.3685 3.04883 3.3275 2.64883C3.2705 2.10183 3.2405 1.20983 3.5915 0.799827C3.8665 0.478827 4.4975 0.381827 4.8885 0.579827C5.4005 0.838827 5.6915 1.58283 5.8245 1.87983C6.0635 2.41383 6.2115 3.03083 6.3405 3.84083C6.5045 4.87183 6.8065 6.30283 6.8165 6.60383C6.8405 6.23483 6.7485 5.45783 6.8125 5.10383C6.8705 4.78283 7.1405 4.40983 7.4785 4.30883C7.7645 4.22383 8.0995 4.19283 8.3945 4.25383C8.7075 4.31783 9.0375 4.54183 9.1605 4.75283C9.5225 5.37683 9.5295 6.65183 9.5445 6.58383C9.6305 6.20783 9.6155 5.35483 9.8285 4.99983C9.9685 4.76583 10.3255 4.55483 10.5155 4.52083C10.8095 4.46883 11.1705 4.45283 11.4795 4.51283C11.7285 4.56183 12.0655 4.85783 12.1565 4.99983C12.3745 5.34383 12.4985 6.31683 12.5355 6.65783C12.5505 6.79883 12.6095 6.26583 12.8285 5.92183C13.2345 5.28283 14.6715 5.15883 14.7265 6.56083C14.7515 7.21483 14.7465 7.18483 14.7465 7.62483C14.7465 8.14183 14.7345 8.45283 14.7065 8.82683C14.6755 9.22683 14.5895 10.1308 14.4645 10.5688C14.3785 10.8698 14.0935 11.5468 13.8125 11.9528C13.8125 11.9528 12.7385 13.2028 12.6215 13.7658C12.5035 14.3278 12.5425 14.3318 12.5195 14.7308C12.4965 15.1288 12.6405 15.6528 12.6405 15.6528C12.6405 15.6528 11.8385 15.7568 11.4065 15.6878C11.0155 15.6248 10.5315 14.8468 10.4065 14.6088C10.2345 14.2808 9.8675 14.3438 9.7245 14.5858C9.4995 14.9688 9.0155 15.6558 8.6735 15.6988C8.0055 15.7828 6.6195 15.7298 5.5345 15.7188C5.5345 15.7188 5.7195 14.7078 5.3075 14.3608C5.0025 14.1018 4.4775 13.5768 4.1635 13.3008L3.3315 12.3798Z" fill="white"/>
<path fill-rule="evenodd" clip-rule="evenodd" d="M3.3315 12.3798C3.0475 12.0208 2.7025 11.2868 2.0885 10.3958C1.7405 9.89183 0.877496 8.94283 0.620496 8.46083C0.397496 8.03483 0.421496 7.84383 0.474496 7.49083C0.568496 6.86283 1.2125 6.37383 1.8995 6.43983C2.4185 6.48883 2.8585 6.83183 3.2545 7.15583C3.4935 7.35083 3.7875 7.72983 3.9645 7.94383C4.1275 8.13983 4.1675 8.22083 4.3415 8.45283C4.5715 8.75983 4.6435 8.91183 4.5555 8.57383C4.4845 8.07783 4.3685 7.23083 4.2005 6.48183C4.0725 5.91383 4.0415 5.82483 3.9195 5.38883C3.7905 4.92483 3.7245 4.59983 3.6035 4.10783C3.5195 3.75983 3.3685 3.04883 3.3275 2.64883C3.2705 2.10183 3.2405 1.20983 3.5915 0.799827C3.8665 0.478827 4.4975 0.381827 4.8885 0.579827C5.4005 0.838827 5.6915 1.58283 5.8245 1.87983C6.0635 2.41383 6.2115 3.03083 6.3405 3.84083C6.5045 4.87183 6.8065 6.30283 6.8165 6.60383C6.8405 6.23483 6.7485 5.45783 6.8125 5.10383C6.8705 4.78283 7.1405 4.40983 7.4785 4.30883C7.7645 4.22383 8.0995 4.19283 8.3945 4.25383C8.7075 4.31783 9.0375 4.54183 9.1605 4.75283C9.5225 5.37683 9.5295 6.65183 9.5445 6.58383C9.6305 6.20783 9.6155 5.35483 9.8285 4.99983C9.9685 4.76583 10.3255 4.55483 10.5155 4.52083C10.8095 4.46883 11.1705 4.45283 11.4795 4.51283C11.7285 4.56183 12.0655 4.85783 12.1565 4.99983C12.3745 5.34383 12.4985 6.31683 12.5355 6.65783C12.5505 6.79883 12.6095 6.26583 12.8285 5.92183C13.2345 5.28283 14.6715 5.15883 14.7265 6.56083C14.7515 7.21483 14.7465 7.18483 14.7465 7.62483C14.7465 8.14183 14.7345 8.45283 14.7065 8.82683C14.6755 9.22683 14.5895 10.1308 14.4645 10.5688C14.3785 10.8698 14.0935 11.5468 13.8125 11.9528C13.8125 11.9528 12.7385 13.2028 12.6215 13.7658C12.5035 14.3278 12.5425 14.3318 12.5195 14.7308C12.4965 15.1288 12.6405 15.6528 12.6405 15.6528C12.6405 15.6528 11.8385 15.7568 11.4065 15.6878C11.0155 15.6248 10.5315 14.8468 10.4065 14.6088C10.2345 14.2808 9.8675 14.3438 9.7245 14.5858C9.4995 14.9688 9.0155 15.6558 8.6735 15.6988C8.0055 15.7828 6.6195 15.7298 5.5345 15.7188C5.5345 15.7188 5.7195 14.7078 5.3075 14.3608C5.0025 14.1018 4.4775 13.5768 4.1635 13.3008L3.3315 12.3798V12.3798Z" stroke="black" stroke-width="0.75" stroke-linecap="round" stroke-linejoin="round"/>
<path d="M11.5664 12.7344V9.27539" stroke="black" stroke-width="0.75" stroke-linecap="round"/>
<path d="M9.55079 12.7459L9.53479 9.27295" stroke="black" stroke-width="0.75" stroke-linecap="round"/>
<path d="M7.55469 9.30469L7.57569 12.7307" stroke="black" stroke-width="0.75" stroke-linecap="round"/>
</svg>
