<svg width="24" height="24" viewBox="0 0 24 24" fill="none" xmlns="http://www.w3.org/2000/svg">
<path fill-rule="evenodd" clip-rule="evenodd" d="M13.2214 0.000107481V8.7293H19.5107V4.48616H17.4535V6.60773H15.2786V2.12168H21.9428V10.9392H2.05716V2.12168H8.7215V6.60773H6.54647V4.48616H4.4893V8.7293H10.7786V0.000107481H0V10.9392V13.0608V24H10.7786V15.2708H4.4893V19.5137H6.54647V17.3922H8.7215V21.8784H2.05716V13.0608H21.9428V21.8784H15.2786V17.3922H17.4535V19.5137H19.5107V15.2708H13.2214V24H24V0.000107481H13.2214Z" fill="white"/>
<mask id="mask0" mask-type="alpha" maskUnits="userSpaceOnUse" x="0" y="0" width="24" height="24">
<path fill-rule="evenodd" clip-rule="evenodd" d="M13.2214 0.000107481V8.7293H19.5107V4.48616H17.4535V6.60773H15.2786V2.12168H21.9428V10.9392H2.05716V2.12168H8.7215V6.60773H6.54647V4.48616H4.4893V8.7293H10.7786V0.000107481H0V10.9392V13.0608V24H10.7786V15.2708H4.4893V19.5137H6.54647V17.3922H8.7215V21.8784H2.05716V13.0608H21.9428V21.8784H15.2786V17.3922H17.4535V19.5137H19.5107V15.2708H13.2214V24H24V0.000107481H13.2214Z" fill="white"/>
</mask>
<g mask="url(#mask0)">
<rect width="24" height="24" fill="white"/>
</g>
</svg>
