<svg width="97" height="6" viewBox="0 0 97 6" fill="none" xmlns="http://www.w3.org/2000/svg">
<path fill-rule="evenodd" clip-rule="evenodd" d="M57.2021 2.29904L55.9021 5.4629L54.4011 1.29245C54.3859 1.25647 54.3707 1.22432 54.3571 1.19566L54.3571 1.19558L54.3571 1.19555L54.3401 1.15937C54.3151 1.12235 54.2881 1.09534 54.2561 1.07532C54.1631 1.0253 54.0091 0.99928 53.7951 0.99928V0.525002H55.6661L55.8181 0.99928C55.4521 0.99928 55.2671 1.07733 55.2671 1.23642C55.2671 1.27044 55.2741 1.31146 55.2891 1.36149L56.0081 3.44471L57.2641 0.342896L58.5141 3.44471L59.7691 0.356904L60.2181 0.53801L58.4731 5.4629L57.2021 2.29904ZM8.48511 4.6248C8.90911 4.17354 9.12111 3.5992 9.12111 2.9068C9.12111 2.21339 8.90611 1.63605 8.47811 1.17979C8.02711 0.701506 7.42411 0.462366 6.67011 0.462366C5.93011 0.462366 5.33211 0.704507 4.87611 1.18779C4.44311 1.63805 4.22711 2.21339 4.22711 2.9068C4.22711 3.5942 4.43911 4.16854 4.86211 4.6248C5.31811 5.11309 5.91611 5.35723 6.65611 5.35723C7.42411 5.35723 8.03411 5.11309 8.48511 4.6248ZM2.81721 1.17478C3.06821 1.17478 3.21721 1.33488 3.26421 1.65606L3.73121 1.55701L3.59221 0.524402H0.597207L0.499207 1.00668C0.821207 1.00668 0.981207 1.13276 0.981207 1.38391V5.28819H1.84021V3.45812C1.84021 3.34505 1.90021 3.27601 2.02121 3.249L3.15921 2.96883V2.63464H1.81221V1.17478H2.81721ZM8.22711 2.9068C8.22711 2.4035 8.08711 1.97725 7.80811 1.62805C7.51011 1.25983 7.13111 1.07673 6.67011 1.07673C6.20911 1.07673 5.83211 1.26083 5.53911 1.63505C5.26011 1.98926 5.12111 2.41251 5.12111 2.9068C5.12111 3.40409 5.26011 3.82834 5.53911 4.17754C5.83211 4.55076 6.20911 4.73587 6.67011 4.73587C7.13611 4.73587 7.51511 4.55076 7.80811 4.17754C8.08711 3.81933 8.22711 3.39508 8.22711 2.9068ZM13.2187 4.86224C13.5397 4.53205 13.6997 4.07078 13.6997 3.47943V0.524702H13.1067L12.9037 3.40239C12.8427 4.2729 12.4877 4.70915 11.8387 4.70915C11.5447 4.70915 11.2997 4.58308 11.1037 4.33193C10.9777 4.16684 10.9147 3.87266 10.9147 3.44441V1.36319C10.9147 1.12105 11.0747 0.99898 11.3967 0.99898L11.2917 0.524702H9.66471V0.99898C9.87471 0.99898 10.0097 1.06202 10.0697 1.18809C10.1077 1.25713 10.1257 1.41422 10.1257 1.65637V3.52846C10.1257 4.12681 10.3047 4.59409 10.6637 4.92328C10.9797 5.21245 11.3757 5.35753 11.8497 5.35753C12.4317 5.35753 12.8877 5.19244 13.2187 4.86224ZM19.0469 1.00628C18.7439 1.00628 18.5929 1.15437 18.5929 1.45255V5.37885L15.5569 1.85878V5.28679H14.8439V1.38351C14.8439 1.13236 14.6859 1.00628 14.3699 1.00628L14.4669 0.525002H15.4309L17.8809 3.38868V1.59363C17.8809 1.39851 17.8579 1.26043 17.8109 1.18139C17.7509 1.07232 17.6279 1.01629 17.4419 1.00628L17.4689 0.525002H18.9629L19.0469 1.00628ZM23.5279 4.56747C23.9559 4.11621 24.1709 3.56088 24.1709 2.89949C24.1709 2.25211 23.9749 1.7098 23.5839 1.27254C23.1369 0.773248 22.5209 0.523101 21.7339 0.523101H19.6399L19.5419 1.00638C19.8589 1.00638 20.0169 1.13246 20.0169 1.38361V5.28789H21.7269C22.4759 5.28789 23.0769 5.04875 23.5279 4.56747ZM23.2769 2.92051C23.2769 2.42221 23.1319 2.00097 22.8439 1.65476C22.5549 1.31156 22.1409 1.13946 21.6019 1.13946H20.8759V4.65852H21.6299C22.1279 4.65852 22.5249 4.49643 22.8229 4.17024C23.1259 3.84004 23.2769 3.4228 23.2769 2.92051ZM24.7213 1.00628C25.0383 1.00628 25.1963 1.13236 25.1963 1.38351V5.28679H28.1003V4.63841H26.0623V3.40069C26.0623 3.32464 26.0733 3.27762 26.0973 3.2536C26.1253 3.22659 26.1743 3.20557 26.2433 3.19156L27.4863 2.9134V2.5772H26.0273V1.17438H27.1443C27.3953 1.17438 27.5443 1.33448 27.5913 1.65466L28.0583 1.55861L27.9193 0.525002H24.8193L24.7213 1.00628ZM33.1899 2.89949C33.1899 3.56088 32.9749 4.11621 32.5469 4.56747C32.0959 5.04875 31.4949 5.28789 30.7459 5.28789H29.0359V1.38361C29.0359 1.13246 28.8779 1.00638 28.5609 1.00638L28.6589 0.523101H30.7529C31.5399 0.523101 32.1559 0.773248 32.6029 1.27254C32.9939 1.7098 33.1899 2.25211 33.1899 2.89949ZM31.8629 1.65476C32.1509 2.00097 32.2959 2.42221 32.2959 2.92051C32.2959 3.4228 32.1449 3.84004 31.8419 4.17024C31.5439 4.49643 31.1469 4.65852 30.6489 4.65852H29.8949V1.13946H30.6209C31.1599 1.13946 31.5739 1.31156 31.8629 1.65476ZM35.5762 5.28809V4.81181C35.8002 4.81181 35.9412 4.76479 36.0022 4.66673C36.0582 4.58268 36.0862 4.41258 36.0862 4.15643V0.523301H36.9302V4.4496C36.9302 4.6227 37.0052 4.73277 37.1542 4.7848C37.1772 4.7948 37.2142 4.80181 37.2652 4.80681C37.3172 4.80981 37.3822 4.81181 37.4612 4.81181L37.3562 5.28809H35.5762ZM42.0821 1.45255C42.0821 1.15437 42.2331 1.00628 42.5361 1.00628L42.4521 0.525002H40.9581L40.9311 1.00628C41.1171 1.01629 41.2401 1.07232 41.3001 1.18139C41.3471 1.26043 41.3701 1.39851 41.3701 1.59363V3.38868L38.9201 0.525002H37.9561L37.8591 1.00628C38.1751 1.00628 38.3331 1.13236 38.3331 1.38351V5.28679H39.0461V1.85878L42.0821 5.37885V1.45255ZM49.6631 1.00628C49.3591 1.00628 49.2101 1.15437 49.2101 1.45255V5.37885L46.1731 1.85878V5.28679H45.4601V1.38351C45.4601 1.13236 45.3031 1.00628 44.9861 1.00628L45.0831 0.525002H46.0471L48.4971 3.38868V1.59363C48.4971 1.39851 48.4741 1.26043 48.4281 1.18139C48.3661 1.07232 48.2431 1.01629 48.0581 1.00628L48.0861 0.525002H49.5791L49.6631 1.00628ZM50.1578 1.00628C50.4758 1.00628 50.6338 1.13236 50.6338 1.38351V5.28679H53.5358V4.63841H51.4978V3.40069C51.4978 3.32464 51.5108 3.27762 51.5328 3.2536C51.5618 3.22659 51.6108 3.20557 51.6808 3.19156L52.9218 2.9134V2.5772H51.4628V1.17438H52.5798C52.8308 1.17438 52.9818 1.33448 53.0278 1.65466L53.4938 1.55861L53.3558 0.525002H50.2558L50.1578 1.00628ZM64.0365 5.28809H64.8955V3.36697L66.3615 0.531306L65.9845 0.38522L64.5675 2.61953L63.8695 1.25073C63.8555 1.21371 63.8465 1.18469 63.8465 1.16768C63.8465 1.05561 63.9975 0.99958 64.2935 0.99958L64.1255 0.523301H62.2915V0.99958C62.4575 0.99958 62.5705 1.00959 62.6245 1.0276C62.7435 1.05861 62.8295 1.13066 62.8835 1.23672L64.0365 3.38198V5.28809ZM71.5405 2.9068C71.5405 3.5992 71.3285 4.17354 70.9045 4.6248C70.4535 5.11309 69.8425 5.35723 69.0765 5.35723C68.3345 5.35723 67.7385 5.11309 67.2825 4.6248C66.8585 4.16854 66.6465 3.5942 66.6465 2.9068C66.6465 2.21339 66.8635 1.63805 67.2945 1.18779C67.7505 0.704507 68.3485 0.462366 69.0885 0.462366C69.8425 0.462366 70.4465 0.701506 70.8975 1.17979C71.3265 1.63605 71.5405 2.21339 71.5405 2.9068ZM70.2275 1.62805C70.5055 1.97725 70.6465 2.4035 70.6465 2.9068C70.6465 3.39508 70.5055 3.81933 70.2275 4.17754C69.9335 4.55076 69.5535 4.73587 69.0885 4.73587C68.6275 4.73587 68.2505 4.55076 67.9585 4.17754C67.6785 3.82834 67.5405 3.40409 67.5405 2.9068C67.5405 2.41251 67.6785 1.98926 67.9585 1.63505C68.2505 1.26083 68.6275 1.07673 69.0885 1.07673C69.5495 1.07673 69.9285 1.25983 70.2275 1.62805ZM76.008 5.03034C76.008 5.11339 75.973 5.18843 75.902 5.25147C75.833 5.32351 75.757 5.35753 75.673 5.35753C75.578 5.35753 75.501 5.31851 75.436 5.23946L73.911 3.20627H73.425V4.45C73.425 4.69214 73.585 4.81321 73.905 4.81321L73.802 5.28849H72.56V1.38321C72.56 1.13206 72.4 1.00598 72.085 1.00598L72.183 0.524702H73.98C74.468 0.524702 74.853 0.638769 75.136 0.866903C75.424 1.10004 75.567 1.41522 75.567 1.81646C75.567 2.36178 75.316 2.74901 74.815 2.98314L75.973 4.90427C75.995 4.94129 76.008 4.98331 76.008 5.03034ZM73.802 1.13206C74.401 1.13206 74.703 1.35819 74.709 1.80945C74.714 2.31775 74.398 2.5709 73.767 2.5709H73.39V1.13206H73.802ZM80.5439 5.06436C80.5439 5.1334 80.5179 5.20244 80.4619 5.26748C80.3999 5.32752 80.3319 5.35753 80.2589 5.35753C80.1799 5.35753 80.0959 5.31851 80.0079 5.23946L77.8509 3.16525C77.7939 3.10922 77.7469 3.09521 77.7099 3.12322C77.7009 3.13123 77.6909 3.13923 77.6839 3.14424C77.6839 3.14824 77.6759 3.15825 77.6609 3.17025C77.6439 3.19527 77.6349 3.23229 77.6349 3.28432V5.28849H76.7739V1.59333C76.7739 1.38821 76.7509 1.24913 76.7049 1.17308C76.6359 1.05801 76.5059 0.999981 76.3149 0.999981L76.3349 0.524702H78.0189L78.1029 1.00498C77.7889 1.00098 77.6349 1.15107 77.6349 1.45425V2.62593L79.5469 0.524702H80.4619V0.684796C80.4619 0.768845 80.4119 0.824878 80.3149 0.852894C80.0919 0.920934 79.9059 1.032 79.7639 1.18109L78.4719 2.5709L80.4819 4.90427C80.5229 4.9513 80.5439 5.00233 80.5439 5.06436ZM84.2582 4.66693C84.1872 4.76899 84.0152 4.82002 83.7412 4.82002V5.28829H85.1732V0.455461L83.5322 0.901723V1.53009L83.9012 1.42403C83.9852 1.40202 84.0512 1.39001 84.0962 1.39001C84.2562 1.39001 84.3352 1.48607 84.3352 1.67518V4.17564C84.3352 4.42779 84.3082 4.59088 84.2582 4.66693ZM89.7154 2.31325C89.7304 3.0767 89.6014 3.73008 89.3324 4.2744C89.0184 4.90877 88.5704 5.25597 87.9844 5.31501C87.6264 5.35403 87.3384 5.25998 87.1254 5.03685V4.72266C87.1714 4.73067 87.3474 4.73467 87.6564 4.73467C87.9714 4.73467 88.2294 4.59659 88.4294 4.31542C88.6124 4.06428 88.7274 3.71007 88.7794 3.2488C88.7554 3.26781 88.6314 3.29282 88.4094 3.32484C88.3106 3.34147 88.2309 3.3535 88.1683 3.36296L88.1424 3.36687C88.0784 3.37687 88.0364 3.38188 88.0164 3.38188C87.9944 3.38588 87.9664 3.38888 87.9394 3.38888H87.8554C87.4974 3.38888 87.1884 3.26081 86.9314 3.00466C86.6574 2.72949 86.5194 2.37529 86.5194 1.94103C86.5194 1.52179 86.6704 1.16958 86.9734 0.881411C87.2784 0.597245 87.6634 0.455161 88.1294 0.455161C89.1644 0.455161 89.6944 1.07352 89.7154 2.31325ZM88.1084 1.07653C88.6084 1.07653 88.8584 1.50978 88.8584 2.37529V2.53638C88.8544 2.57737 88.8512 2.6179 88.8481 2.6586L88.8481 2.65902L88.8434 2.71849C88.8434 2.72749 88.7984 2.7385 88.7114 2.75251C88.6274 2.75751 88.5854 2.76451 88.5854 2.77252H88.1574C87.9144 2.77252 87.7214 2.69347 87.5824 2.53638C87.4464 2.37329 87.3794 2.17117 87.3794 1.92902C87.3794 1.67287 87.4444 1.46575 87.5754 1.30766C87.7114 1.15157 87.8874 1.07653 88.1084 1.07653ZM93.291 3.9396C93.291 4.37686 93.124 4.72907 92.788 4.99522C92.473 5.24137 92.084 5.36544 91.622 5.36544C91.487 5.36544 91.371 5.36244 91.273 5.35743C91.2065 5.3515 91.1473 5.3447 91.0955 5.33874L91.0952 5.3387C91.0685 5.33564 91.0438 5.3328 91.021 5.33042L90.883 4.72206C91.156 4.7951 91.401 4.82712 91.615 4.81311C91.877 4.7901 92.071 4.70205 92.201 4.54596C92.337 4.38486 92.404 4.17374 92.404 3.91859C92.404 3.4193 92.115 3.10611 91.538 2.97604L91.329 2.92701L91.211 2.52978C91.263 2.52477 91.314 2.52177 91.371 2.52177C91.432 2.52177 91.494 2.51977 91.561 2.51477C92.038 2.49175 92.278 2.25161 92.278 1.79435C92.278 1.58522 92.214 1.41712 92.084 1.28605C91.947 1.15097 91.77 1.08393 91.546 1.08393C91.322 1.08393 91.165 1.13896 91.07 1.25003C91.024 1.30706 90.982 1.41712 90.945 1.57922C90.912 1.7093 90.865 1.78434 90.807 1.80235C90.802 1.80735 90.767 1.81436 90.7 1.82436C90.607 1.82436 90.535 1.79635 90.484 1.74732V0.901823C90.681 0.613654 91.065 0.464567 91.644 0.460564C92.1 0.457563 92.47 0.559622 92.754 0.768745C93.032 0.978868 93.173 1.27904 93.173 1.66827C93.173 1.94543 93.078 2.18257 92.894 2.38069C92.734 2.55479 92.544 2.67586 92.32 2.7459C92.613 2.82495 92.847 2.96603 93.02 3.17015C93.199 3.38028 93.291 3.63743 93.291 3.9396ZM95.4135 4.66693C95.3425 4.76899 95.1705 4.82002 94.8965 4.82002V5.28829H96.3285V0.455461L94.6875 0.901723V1.53009L95.0565 1.42403C95.1405 1.40202 95.2065 1.39001 95.2515 1.39001C95.4115 1.39001 95.4905 1.48607 95.4905 1.67518V4.17564C95.4905 4.42779 95.4635 4.59088 95.4135 4.66693Z" fill="white"/>
</svg>